REM DIRINDEX 1\2\6,1\2\7,1\2\8,1\3\9,1\3\10,1\3\11,1\4\12,1\4\13,1\4\14,1\5\15,1\5\16,1\5\17,1\5\18
REM DIRNAME folder01,folder02,folder03,folder04,folder05,folder06,folder07,folder08,folder09,folder10,folder11,folder12,folder13,folder14,folder15,folder16,folder17,folder18
TITLE ""
FILE "" MP3
  TRACK 01 AUDIO
    TITLE "13:cjc019_3156"
    INDEX 01 00:00:00
  TRACK 02 AUDIO
    TITLE "0:"
    INDEX 01 00:00:72
  TRACK 03 AUDIO
    TITLE "14:cjc019_3157"
    INDEX 01 00:01:50
  TRACK 04 AUDIO
    TITLE "0:"
    INDEX 01 00:06:16
  TRACK 05 AUDIO
    TITLE "13:cjc019_3158"
    INDEX 01 00:07:03
  TRACK 06 AUDIO
    TITLE "0:"
    INDEX 01 00:08:19
  TRACK 07 AUDIO
    TITLE "14:cjc019_3159"
    INDEX 01 00:09:04
  TRACK 08 AUDIO
    TITLE "0:"
    INDEX 01 00:10:43
  TRACK 09 AUDIO
    TITLE "13:cjc019_3160"
    INDEX 01 00:11:25
  TRACK 10 AUDIO
    TITLE "0:"
    INDEX 01 00:12:36
  TRACK 11 AUDIO
    TITLE "14:cjc019_3161"
    INDEX 01 00:13:18
  TRACK 12 AUDIO
    TITLE "0:"
    INDEX 01 00:16:55
  TRACK 13 AUDIO
    TITLE "13:cjc019_3162"
    INDEX 01 00:17:37
  TRACK 14 AUDIO
    TITLE "0:"
    INDEX 01 00:18:64
  TRACK 15 AUDIO
    TITLE "14:cjc019_3163"
    INDEX 01 00:19:44
  TRACK 16 AUDIO
    TITLE "0:"
    INDEX 01 00:23:14
  TRACK 17 AUDIO
    TITLE "13:cjc019_3164"
    INDEX 01 00:23:67
  TRACK 18 AUDIO
    TITLE "0:"
    INDEX 01 00:25:25
  TRACK 19 AUDIO
    TITLE "14:cjc019_3165"
    INDEX 01 00:26:11
  TRACK 20 AUDIO
    TITLE "0:"
    INDEX 01 00:27:49
  TRACK 21 AUDIO
    TITLE "13:cjc019_3166"
    INDEX 01 00:28:27
  TRACK 22 AUDIO
    TITLE "0:"
    INDEX 01 00:29:52
  TRACK 23 AUDIO
    TITLE "14:cjc019_3167"
    INDEX 01 00:30:32
  TRACK 24 AUDIO
    TITLE "0:"
    INDEX 01 00:32:74
  TRACK 25 AUDIO
    TITLE "13:cjc019_3168"
    INDEX 01 00:33:52
  TRACK 26 AUDIO
    TITLE "0:"
    INDEX 01 00:34:57
  TRACK 27 AUDIO
    TITLE "14:cjc019_3169"
    INDEX 01 00:35:39
  TRACK 28 AUDIO
    TITLE "0:"
    INDEX 01 00:37:26
  TRACK 29 AUDIO
    TITLE "13:cjc019_3170"
    INDEX 01 00:38:02
  TRACK 30 AUDIO
    TITLE "0:"
    INDEX 01 00:39:25
  TRACK 31 AUDIO
    TITLE "14:cjc019_3171"
    INDEX 01 00:40:03
  TRACK 32 AUDIO
    TITLE "0:"
    INDEX 01 00:41:53
  TRACK 33 AUDIO
    TITLE "13:cjc019_3172"
    INDEX 01 00:42:29
  TRACK 34 AUDIO
    TITLE "0:"
    INDEX 01 00:43:42
  TRACK 35 AUDIO
    TITLE "14:cjc019_3173"
    INDEX 01 00:44:32
  TRACK 36 AUDIO
    TITLE "0:"
    INDEX 01 00:48:02
  TRACK 37 AUDIO
    TITLE "13:cjc019_3174"
    INDEX 01 00:48:55
  TRACK 38 AUDIO
    TITLE "0:"
    INDEX 01 00:50:01
  TRACK 39 AUDIO
    TITLE "14:cjc019_3175"
    INDEX 01 00:50:62
  TRACK 40 AUDIO
    TITLE "0:"
    INDEX 01 00:55:67
  TRACK 41 AUDIO
    TITLE "13:cjc019_3176"
    INDEX 01 00:56:45
  TRACK 42 AUDIO
    TITLE "0:"
    INDEX 01 00:58:22
  TRACK 43 AUDIO
    TITLE "14:cjc019_3177"
    INDEX 01 00:59:04
  TRACK 44 AUDIO
    TITLE "0:"
    INDEX 01 01:00:12
  TRACK 45 AUDIO
    TITLE "13:cjc019_3178"
    INDEX 01 01:00:64
  TRACK 46 AUDIO
    TITLE "0:"
    INDEX 01 01:02:08
  TRACK 47 AUDIO
    TITLE "14:cjc019_3179"
    INDEX 01 01:02:65
  TRACK 48 AUDIO
    TITLE "0:"
    INDEX 01 01:06:16
  TRACK 49 AUDIO
    TITLE "13:cjc019_3180"
    INDEX 01 01:06:67
  TRACK 50 AUDIO
    TITLE "0:"
    INDEX 01 01:07:74
  TRACK 51 AUDIO
    TITLE "14:cjc019_3181"
    INDEX 01 01:08:60
  TRACK 52 AUDIO
    TITLE "0:"
    INDEX 01 01:11:66
  TRACK 53 AUDIO
    TITLE "13:cjc019_3182"
    INDEX 01 01:12:44
  TRACK 54 AUDIO
    TITLE "0:"
    INDEX 01 01:13:51
  TRACK 55 AUDIO
    TITLE "14:cjc019_3183"
    INDEX 01 01:14:27
  TRACK 56 AUDIO
    TITLE "0:"
    INDEX 01 01:17:57
  TRACK 57 AUDIO
    TITLE "13:cjc019_3184"
    INDEX 01 01:18:33
  TRACK 58 AUDIO
    TITLE "0:"
    INDEX 01 01:19:66
  TRACK 59 AUDIO
    TITLE "14:cjc019_3185"
    INDEX 01 01:20:49
  TRACK 60 AUDIO
    TITLE "0:"
    INDEX 01 01:22:25
  TRACK 61 AUDIO
    TITLE "13:cjc019_3186"
    INDEX 01 01:23:07
  TRACK 62 AUDIO
    TITLE "0:"
    INDEX 01 01:24:26
  TRACK 63 AUDIO
    TITLE "14:cjc019_3187"
    INDEX 01 01:25:04
  TRACK 64 AUDIO
    TITLE "0:"
    INDEX 01 01:27:67
